# xmcd
#
# Track frame offsets:
#	150
#	14703
#	30306
#	47559
#	60913
#	76967
#	94671
#	109524
#	126477
#	142831
#	157235
#	175088
#
# Disc length: 2478 seconds
#
# Revision: 1
# Processed by: cddbd v1.5PL3 Copyright (c) Steve Scherf et al.
# Submitted via: EasyCDDAExtractor 7.0.3.1
#
DISCID=9109ac0c
DTITLE=Joe Diffie - Tougher Than Nails
DYEAR=2004
DGENRE=Country
TTITLE0=Tougher Than Nails
TTITLE1=Nuthin' But The Radio
TTITLE2=Good News Bad News
TTITLE3=Am I
TTITLE4=Movin' Train
TTITLE5=If I Could Only Bring You Back
TTITLE6=What Would Waylon Do
TTITLE7=Something I Do For Me
TTITLE8=Daddy's Home
TTITLE9=This Time Last Year
TTITLE10=My Redneck Of The Woods
TTITLE11=The More You Drink The Better I Look
EXTD=
EXTT0=
EXTT1=
EXTT2=
EXTT3=
EXTT4=
EXTT5=
EXTT6=
EXTT7=
EXTT8=
EXTT9=
EXTT10=
EXTT11=
PLAYORDER=
